<mxfile host="app.diagrams.net" modified="2024-03-15T22:09:45.068Z" agent="Mozilla/5.0 (X11; Linux x86_64; rv:124.0) Gecko/20100101 Firefox/124.0" etag="k_fwpTCtVZJa2gpP1HJ4" version="24.0.0" type="device">
  <diagram id="R2lEEEUBdFMjLlhIrx00" name="Page-1">
    <mxGraphModel dx="872" dy="490" grid="1" gridSize="10" guides="1" tooltips="1" connect="1" arrows="1" fold="1" page="1" pageScale="1" pageWidth="850" pageHeight="1100" math="0" shadow="0" extFonts="Permanent Marker^https://fonts.googleapis.com/css?family=Permanent+Marker">
      <root>
        <mxCell id="0" />
        <mxCell id="1" parent="0" />
        <mxCell id="MUznTpa28tETEjkemQFK-1" value="&lt;p style=&quot;line-height: 100%;&quot;&gt;PERSONS&lt;/p&gt;" style="swimlane;childLayout=stackLayout;horizontal=1;startSize=25;horizontalStack=0;rounded=1;fontSize=14;fontStyle=0;strokeWidth=2;resizeParent=0;resizeLast=1;shadow=0;dashed=0;align=center;arcSize=4;whiteSpace=wrap;html=1;spacing=10;" parent="1" vertex="1">
          <mxGeometry x="180" y="300" width="160" height="70" as="geometry" />
        </mxCell>
        <mxCell id="MUznTpa28tETEjkemQFK-2" value="&lt;div&gt;id&lt;/div&gt;&lt;div&gt;name&lt;/div&gt;" style="align=left;strokeColor=none;fillColor=none;spacingLeft=4;fontSize=12;verticalAlign=top;resizable=0;rotatable=0;part=1;html=1;" parent="MUznTpa28tETEjkemQFK-1" vertex="1">
          <mxGeometry y="25" width="160" height="45" as="geometry" />
        </mxCell>
        <mxCell id="MUznTpa28tETEjkemQFK-3" style="edgeStyle=orthogonalEdgeStyle;rounded=0;orthogonalLoop=1;jettySize=auto;html=1;exitX=0.5;exitY=1;exitDx=0;exitDy=0;" parent="MUznTpa28tETEjkemQFK-1" source="MUznTpa28tETEjkemQFK-2" target="MUznTpa28tETEjkemQFK-2" edge="1">
          <mxGeometry relative="1" as="geometry" />
        </mxCell>
        <mxCell id="MUznTpa28tETEjkemQFK-5" value="FRIENDSHIPS" style="swimlane;childLayout=stackLayout;horizontal=1;startSize=25;horizontalStack=0;rounded=1;fontSize=14;fontStyle=0;strokeWidth=2;resizeParent=0;resizeLast=1;shadow=0;dashed=0;align=center;arcSize=4;whiteSpace=wrap;html=1;" parent="1" vertex="1">
          <mxGeometry x="180" y="170" width="160" height="100" as="geometry" />
        </mxCell>
        <mxCell id="MUznTpa28tETEjkemQFK-6" value="&lt;div&gt;person_id&lt;/div&gt;&lt;div&gt;friend_id&lt;/div&gt;&lt;div&gt;keeps_contact&lt;/div&gt;&lt;div&gt;miles&lt;br&gt;&lt;/div&gt;" style="align=left;strokeColor=none;fillColor=none;spacingLeft=4;fontSize=12;verticalAlign=top;resizable=0;rotatable=0;part=1;html=1;" parent="MUznTpa28tETEjkemQFK-5" vertex="1">
          <mxGeometry y="25" width="160" height="75" as="geometry" />
        </mxCell>
        <mxCell id="MUznTpa28tETEjkemQFK-7" style="edgeStyle=orthogonalEdgeStyle;rounded=0;orthogonalLoop=1;jettySize=auto;html=1;exitX=0.5;exitY=1;exitDx=0;exitDy=0;" parent="MUznTpa28tETEjkemQFK-5" source="MUznTpa28tETEjkemQFK-6" target="MUznTpa28tETEjkemQFK-6" edge="1">
          <mxGeometry relative="1" as="geometry" />
        </mxCell>
        <mxCell id="MUznTpa28tETEjkemQFK-21" style="edgeStyle=orthogonalEdgeStyle;rounded=0;orthogonalLoop=1;jettySize=auto;html=1;exitX=0.5;exitY=0;exitDx=0;exitDy=0;entryX=0.5;entryY=1;entryDx=0;entryDy=0;startArrow=ERzeroToMany;startFill=0;endArrow=ERmandOne;endFill=0;" parent="1" source="MUznTpa28tETEjkemQFK-8" target="MUznTpa28tETEjkemQFK-2" edge="1">
          <mxGeometry relative="1" as="geometry" />
        </mxCell>
        <mxCell id="MUznTpa28tETEjkemQFK-8" value="INFORMATION" style="swimlane;childLayout=stackLayout;horizontal=1;startSize=25;horizontalStack=0;rounded=1;fontSize=14;fontStyle=0;strokeWidth=2;resizeParent=0;resizeLast=1;shadow=0;dashed=0;align=center;arcSize=4;whiteSpace=wrap;html=1;" parent="1" vertex="1">
          <mxGeometry x="180" y="420" width="160" height="110" as="geometry" />
        </mxCell>
        <mxCell id="MUznTpa28tETEjkemQFK-9" value="&lt;div&gt;id&lt;/div&gt;&lt;div&gt;message&lt;/div&gt;&lt;div&gt;truthfulness&lt;/div&gt;&lt;div&gt;original_source&lt;/div&gt;&lt;div&gt;created_at&lt;br&gt;&lt;/div&gt;" style="align=left;strokeColor=none;fillColor=none;spacingLeft=4;fontSize=12;verticalAlign=top;resizable=0;rotatable=0;part=1;html=1;" parent="MUznTpa28tETEjkemQFK-8" vertex="1">
          <mxGeometry y="25" width="160" height="85" as="geometry" />
        </mxCell>
        <mxCell id="MUznTpa28tETEjkemQFK-10" style="edgeStyle=orthogonalEdgeStyle;rounded=0;orthogonalLoop=1;jettySize=auto;html=1;exitX=0.5;exitY=1;exitDx=0;exitDy=0;" parent="MUznTpa28tETEjkemQFK-8" source="MUznTpa28tETEjkemQFK-9" target="MUznTpa28tETEjkemQFK-9" edge="1">
          <mxGeometry relative="1" as="geometry" />
        </mxCell>
        <mxCell id="MUznTpa28tETEjkemQFK-24" style="edgeStyle=orthogonalEdgeStyle;rounded=0;orthogonalLoop=1;jettySize=auto;html=1;exitX=0.5;exitY=0;exitDx=0;exitDy=0;entryX=1;entryY=0.5;entryDx=0;entryDy=0;startArrow=ERzeroToMany;startFill=0;endArrow=ERmandOne;endFill=0;" parent="1" source="MUznTpa28tETEjkemQFK-11" target="MUznTpa28tETEjkemQFK-2" edge="1">
          <mxGeometry relative="1" as="geometry" />
        </mxCell>
        <mxCell id="MUznTpa28tETEjkemQFK-11" value="INFO_SPREAD" style="swimlane;childLayout=stackLayout;horizontal=1;startSize=25;horizontalStack=0;rounded=1;fontSize=14;fontStyle=0;strokeWidth=2;resizeParent=0;resizeLast=1;shadow=0;dashed=0;align=center;arcSize=4;whiteSpace=wrap;html=1;" parent="1" vertex="1">
          <mxGeometry x="440" y="380" width="160" height="110" as="geometry" />
        </mxCell>
        <mxCell id="MUznTpa28tETEjkemQFK-12" value="&lt;div&gt;id&lt;br&gt;&lt;/div&gt;&lt;div&gt;info_id&lt;/div&gt;&lt;div&gt;receiver&lt;/div&gt;&lt;div&gt;source&lt;/div&gt;&lt;div&gt;source_asked&lt;br&gt;&lt;/div&gt;" style="align=left;strokeColor=none;fillColor=none;spacingLeft=4;fontSize=12;verticalAlign=top;resizable=0;rotatable=0;part=1;html=1;" parent="MUznTpa28tETEjkemQFK-11" vertex="1">
          <mxGeometry y="25" width="160" height="85" as="geometry" />
        </mxCell>
        <mxCell id="MUznTpa28tETEjkemQFK-13" style="edgeStyle=orthogonalEdgeStyle;rounded=0;orthogonalLoop=1;jettySize=auto;html=1;exitX=0.5;exitY=1;exitDx=0;exitDy=0;" parent="MUznTpa28tETEjkemQFK-11" source="MUznTpa28tETEjkemQFK-12" target="MUznTpa28tETEjkemQFK-12" edge="1">
          <mxGeometry relative="1" as="geometry" />
        </mxCell>
        <mxCell id="MUznTpa28tETEjkemQFK-17" style="edgeStyle=orthogonalEdgeStyle;rounded=0;orthogonalLoop=1;jettySize=auto;html=1;exitX=0;exitY=0.5;exitDx=0;exitDy=0;entryX=0;entryY=0.25;entryDx=0;entryDy=0;startArrow=ERzeroToMany;startFill=0;endArrow=ERmandOne;endFill=0;" parent="1" source="MUznTpa28tETEjkemQFK-6" target="MUznTpa28tETEjkemQFK-2" edge="1">
          <mxGeometry relative="1" as="geometry" />
        </mxCell>
        <mxCell id="MUznTpa28tETEjkemQFK-18" style="edgeStyle=orthogonalEdgeStyle;rounded=0;orthogonalLoop=1;jettySize=auto;html=1;exitX=1;exitY=0.25;exitDx=0;exitDy=0;entryX=1;entryY=0.25;entryDx=0;entryDy=0;startArrow=ERzeroToMany;startFill=0;endArrow=ERmandOne;endFill=0;" parent="1" source="MUznTpa28tETEjkemQFK-6" target="MUznTpa28tETEjkemQFK-2" edge="1">
          <mxGeometry relative="1" as="geometry" />
        </mxCell>
        <mxCell id="MUznTpa28tETEjkemQFK-25" style="edgeStyle=orthogonalEdgeStyle;rounded=0;orthogonalLoop=1;jettySize=auto;html=1;exitX=0;exitY=0.75;exitDx=0;exitDy=0;entryX=1;entryY=0.5;entryDx=0;entryDy=0;startArrow=ERzeroToMany;startFill=0;endArrow=ERmandOne;endFill=0;" parent="1" source="MUznTpa28tETEjkemQFK-12" target="MUznTpa28tETEjkemQFK-9" edge="1">
          <mxGeometry relative="1" as="geometry" />
        </mxCell>
        <mxCell id="MUznTpa28tETEjkemQFK-27" value="CITIES" style="swimlane;childLayout=stackLayout;horizontal=1;startSize=25;horizontalStack=0;rounded=1;fontSize=14;fontStyle=0;strokeWidth=2;resizeParent=0;resizeLast=1;shadow=0;dashed=0;align=center;arcSize=4;whiteSpace=wrap;html=1;" parent="1" vertex="1">
          <mxGeometry x="180" y="660" width="160" height="80" as="geometry" />
        </mxCell>
        <mxCell id="MUznTpa28tETEjkemQFK-28" value="&lt;div&gt;id&lt;/div&gt;&lt;div&gt;name&lt;/div&gt;&lt;div&gt;mayor&lt;br&gt;&lt;/div&gt;" style="align=left;strokeColor=none;fillColor=none;spacingLeft=4;fontSize=12;verticalAlign=top;resizable=0;rotatable=0;part=1;html=1;" parent="MUznTpa28tETEjkemQFK-27" vertex="1">
          <mxGeometry y="25" width="160" height="55" as="geometry" />
        </mxCell>
        <mxCell id="MUznTpa28tETEjkemQFK-29" style="edgeStyle=orthogonalEdgeStyle;rounded=0;orthogonalLoop=1;jettySize=auto;html=1;exitX=0.5;exitY=1;exitDx=0;exitDy=0;" parent="MUznTpa28tETEjkemQFK-27" source="MUznTpa28tETEjkemQFK-28" target="MUznTpa28tETEjkemQFK-28" edge="1">
          <mxGeometry relative="1" as="geometry" />
        </mxCell>
        <mxCell id="MUznTpa28tETEjkemQFK-35" value="INFO_CITIES" style="swimlane;childLayout=stackLayout;horizontal=1;startSize=25;horizontalStack=0;rounded=1;fontSize=14;fontStyle=0;strokeWidth=2;resizeParent=0;resizeLast=1;shadow=0;dashed=0;align=center;arcSize=4;whiteSpace=wrap;html=1;" parent="1" vertex="1">
          <mxGeometry x="180" y="560" width="160" height="70" as="geometry" />
        </mxCell>
        <mxCell id="MUznTpa28tETEjkemQFK-36" value="&lt;div&gt;info_id&lt;/div&gt;&lt;div&gt;city_id&lt;/div&gt;&lt;div&gt;&lt;br&gt;&lt;/div&gt;" style="align=left;strokeColor=none;fillColor=none;spacingLeft=4;fontSize=12;verticalAlign=top;resizable=0;rotatable=0;part=1;html=1;" parent="MUznTpa28tETEjkemQFK-35" vertex="1">
          <mxGeometry y="25" width="160" height="45" as="geometry" />
        </mxCell>
        <mxCell id="MUznTpa28tETEjkemQFK-37" style="edgeStyle=orthogonalEdgeStyle;rounded=0;orthogonalLoop=1;jettySize=auto;html=1;exitX=0.5;exitY=1;exitDx=0;exitDy=0;" parent="MUznTpa28tETEjkemQFK-35" source="MUznTpa28tETEjkemQFK-36" target="MUznTpa28tETEjkemQFK-36" edge="1">
          <mxGeometry relative="1" as="geometry" />
        </mxCell>
        <mxCell id="MUznTpa28tETEjkemQFK-40" value="" style="fontSize=12;html=1;endArrow=ERzeroToMany;startArrow=ERmandOne;rounded=0;entryX=0.5;entryY=0;entryDx=0;entryDy=0;exitX=0.5;exitY=0;exitDx=0;exitDy=0;" parent="1" source="MUznTpa28tETEjkemQFK-35" target="MUznTpa28tETEjkemQFK-35" edge="1">
          <mxGeometry width="100" height="100" relative="1" as="geometry">
            <mxPoint x="250" y="620" as="sourcePoint" />
            <mxPoint x="350" y="520" as="targetPoint" />
          </mxGeometry>
        </mxCell>
        <mxCell id="MUznTpa28tETEjkemQFK-42" value="" style="fontSize=12;html=1;endArrow=ERzeroToMany;startArrow=ERmandOne;rounded=0;entryX=0.5;entryY=0;entryDx=0;entryDy=0;exitX=0.5;exitY=1;exitDx=0;exitDy=0;" parent="1" source="MUznTpa28tETEjkemQFK-9" target="MUznTpa28tETEjkemQFK-35" edge="1">
          <mxGeometry width="100" height="100" relative="1" as="geometry">
            <mxPoint x="120" y="640" as="sourcePoint" />
            <mxPoint x="220" y="540" as="targetPoint" />
          </mxGeometry>
        </mxCell>
        <mxCell id="MUznTpa28tETEjkemQFK-43" value="" style="fontSize=12;html=1;endArrow=ERzeroToMany;startArrow=ERmandOne;rounded=0;entryX=0.5;entryY=1;entryDx=0;entryDy=0;exitX=0.5;exitY=0;exitDx=0;exitDy=0;" parent="1" source="MUznTpa28tETEjkemQFK-27" target="MUznTpa28tETEjkemQFK-36" edge="1">
          <mxGeometry width="100" height="100" relative="1" as="geometry">
            <mxPoint x="100" y="750" as="sourcePoint" />
            <mxPoint x="200" y="650" as="targetPoint" />
          </mxGeometry>
        </mxCell>
        <mxCell id="MUznTpa28tETEjkemQFK-44" style="edgeStyle=orthogonalEdgeStyle;rounded=0;orthogonalLoop=1;jettySize=auto;html=1;exitX=0;exitY=0.5;exitDx=0;exitDy=0;entryX=0;entryY=0.75;entryDx=0;entryDy=0;startArrow=ERmandOne;startFill=0;endArrow=ERmandOne;endFill=0;" parent="1" source="MUznTpa28tETEjkemQFK-28" target="MUznTpa28tETEjkemQFK-2" edge="1">
          <mxGeometry relative="1" as="geometry" />
        </mxCell>
      </root>
    </mxGraphModel>
  </diagram>
</mxfile>
